<svg width="220" height="80" viewBox="0 0 220 80" fill="none" xmlns="http://www.w3.org/2000/svg">
  <g id="pisnya-logo">
    <g id="logo">
      <path id="Vector" d="M41.572 64.58H29.612V27.182H11.957V64.58H0V18.212H41.572V64.58Z" fill="white"/>
      <path id="Vector_2" d="M65.929 24.627H54.065V16.126H65.929V24.627ZM65.618 64.58H54.376V29.609H65.618V64.58Z" fill="white"/>
      <path id="Vector_3" d="M99.349 65.484C95.902 65.484 92.722 64.972 89.805 63.957C86.888 62.942 84.381 61.426 82.284 59.411C80.186 57.398 78.563 54.887 77.41 51.876C76.259 48.866 75.682 45.389 75.682 41.443C75.682 37.765 76.23 34.434 77.332 31.445C78.432 28.455 80.03 25.891 82.127 23.755C84.14 21.699 86.638 20.109 89.616 18.99C92.596 17.868 95.85 17.309 99.379 17.309C101.331 17.309 103.09 17.415 104.655 17.631C106.224 17.855 107.672 18.136 109.001 18.489C110.391 18.883 111.654 19.326 112.786 19.81C113.917 20.294 114.908 20.748 115.758 21.164V32.406H114.389C113.807 31.91 113.076 31.323 112.192 30.636C111.309 29.954 110.308 29.284 109.188 28.622C108.045 27.963 106.81 27.404 105.482 26.95C104.152 26.495 102.732 26.267 101.215 26.267C99.533 26.267 97.935 26.532 96.418 27.061C94.903 27.586 93.502 28.461 92.215 29.686C90.99 30.868 89.999 32.427 89.241 34.375C88.483 36.321 88.105 38.688 88.105 41.46C88.105 44.365 88.515 46.786 89.335 48.733C90.154 50.678 91.188 52.212 92.432 53.333C93.699 54.474 95.111 55.286 96.668 55.771C98.224 56.255 99.761 56.5 101.276 56.5C102.728 56.5 104.166 56.284 105.588 55.852C107.01 55.418 108.323 54.83 109.527 54.084C110.545 53.486 111.49 52.847 112.36 52.165C113.231 51.482 113.952 50.894 114.51 50.397H115.753V61.483C114.592 62.004 113.479 62.49 112.424 62.948C111.364 63.406 110.252 63.801 109.09 64.133C107.575 64.571 106.153 64.902 104.824 65.129C103.501 65.368 101.674 65.484 99.349 65.484Z" fill="white"/>
      <path id="Vector_4" d="M167.707 64.58H155.751V44.15H138.093V64.58H126.137V18.212H138.093V35.186H155.751V18.212H167.707V64.58V64.58Z" fill="white"/>
      <path id="Vector_5" d="M219.998 64.58H208.102V47.579H201.604L189.917 64.58H175.748L189.603 45.365C186.799 44.163 184.605 42.459 183.019 40.258C181.429 38.061 180.633 35.174 180.633 31.602C180.633 29.239 181.159 27.172 182.207 25.407C183.257 23.641 184.592 22.201 186.207 21.08C187.619 20.101 189.336 19.383 191.36 18.916C193.387 18.448 195.705 18.217 198.323 18.217H219.998V64.58ZM208.102 39.232V26.744H202.184C200.378 26.744 198.989 26.803 198.012 26.916C197.035 27.03 196.09 27.43 195.18 28.115C194.473 28.635 193.934 29.314 193.559 30.154C193.184 30.996 192.998 31.925 192.998 32.939C192.998 34 193.193 34.949 193.589 35.789C193.983 36.631 194.532 37.32 195.241 37.859C196.029 38.482 196.96 38.867 198.025 39.007C199.095 39.154 200.503 39.23 202.244 39.23L208.102 39.232Z" fill="white"/>
    </g>
    <g id="www">
      <path id="Vector_6" d="M6.112 74.038C5.962 74.518 5.781 74.988 5.577 75.439L4.63 77.555H2.744L0 72.728H2.024L3.038 74.751C3.268 75.22 3.475 75.675 3.654 76.112H3.685C3.835 75.687 4.018 75.233 4.228 74.751L5.126 72.728H7.15L8.033 74.751C8.221 75.179 8.403 75.635 8.575 76.112H8.607C8.792 75.665 8.996 75.211 9.224 74.751L10.236 72.728H12.26L9.516 77.556H7.629L6.682 75.44C6.467 74.963 6.287 74.5 6.147 74.04L6.112 74.038Z" fill="white"/>
      <path id="Vector_7" d="M23.673 74.038C23.522 74.518 23.342 74.988 23.138 75.439L22.19 77.554H20.305L17.559 72.724H19.584L20.597 74.748C20.829 75.216 21.033 75.672 21.211 76.108H21.243C21.393 75.682 21.576 75.227 21.786 74.748L22.684 72.724H24.71L25.593 74.748C25.781 75.177 25.963 75.632 26.135 76.108H26.168C26.352 75.662 26.556 75.208 26.784 74.748L27.796 72.724H29.82L27.075 77.554H25.19L24.242 75.439C24.027 74.961 23.848 74.498 23.707 74.038H23.673Z" fill="white"/>
      <path id="Vector_8" d="M41.233 74.038C41.083 74.518 40.903 74.988 40.699 75.439L39.753 77.554H37.867L35.122 72.724H37.147L38.159 74.748C38.391 75.216 38.597 75.672 38.774 76.108H38.806C38.958 75.682 39.139 75.227 39.349 74.748L40.248 72.724H42.273L43.154 74.748C43.342 75.177 43.524 75.632 43.697 76.108H43.729C43.912 75.662 44.118 75.208 44.345 74.748L45.356 72.724H47.381L44.636 77.554H42.751L41.804 75.439C41.587 74.961 41.408 74.498 41.269 74.038H41.233Z" fill="white"/>
      <path id="Vector_9" d="M52.445 76.227H54.623V77.557H52.445V76.227Z" fill="white"/>
      <path id="Vector_10" d="M66.08 77.682C65.659 77.682 65.277 77.635 64.934 77.54C64.59 77.443 64.305 77.328 64.079 77.186H64.046C64.051 77.251 64.057 77.346 64.062 77.466C64.066 77.588 64.071 77.719 64.071 77.863V79.872H62.151V72.726H63.835L63.917 73.269H63.949C64.186 73.079 64.491 72.915 64.864 72.791C65.236 72.667 65.668 72.603 66.161 72.603C66.586 72.603 67.006 72.654 67.418 72.749C67.832 72.848 68.196 72.997 68.514 73.2C68.833 73.402 69.088 73.658 69.279 73.967C69.472 74.28 69.567 74.643 69.567 75.071C69.567 75.514 69.464 75.907 69.26 76.232C69.056 76.557 68.785 76.832 68.451 77.045C68.117 77.258 67.745 77.419 67.337 77.521C66.93 77.63 66.511 77.682 66.08 77.682ZM65.828 73.557C65.493 73.559 65.175 73.614 64.872 73.708C64.568 73.807 64.303 73.937 64.071 74.105V76.255C64.15 76.316 64.249 76.368 64.361 76.422C64.475 76.484 64.601 76.529 64.743 76.577C64.883 76.624 65.035 76.661 65.207 76.688C65.377 76.719 65.554 76.733 65.738 76.733C66.034 76.733 66.299 76.696 66.531 76.618C66.764 76.541 66.957 76.43 67.111 76.287C67.264 76.141 67.382 75.974 67.462 75.776C67.544 75.58 67.586 75.356 67.586 75.115C67.586 74.856 67.544 74.631 67.459 74.43C67.376 74.237 67.257 74.074 67.105 73.944C66.951 73.815 66.765 73.715 66.549 73.651C66.333 73.589 66.091 73.557 65.828 73.557Z" fill="white"/>
      <path id="Vector_11" d="M76.409 70.34H78.424V71.623H76.409V70.34ZM76.458 72.729H78.376V77.557H76.458V72.729Z" fill="white"/>
      <path id="Vector_12" d="M89.143 76.156C89.143 76.052 89.097 75.967 89.001 75.9C88.907 75.837 88.781 75.779 88.625 75.734C88.47 75.689 88.29 75.65 88.088 75.619C87.886 75.587 87.673 75.555 87.452 75.518C87.172 75.47 86.902 75.417 86.642 75.357C86.382 75.294 86.154 75.211 85.958 75.116C85.761 75.013 85.604 74.888 85.487 74.738C85.372 74.588 85.314 74.402 85.314 74.179C85.314 73.908 85.391 73.679 85.548 73.484C85.705 73.288 85.916 73.123 86.184 72.994C86.452 72.865 86.762 72.765 87.114 72.706C87.468 72.643 87.843 72.609 88.236 72.609C88.717 72.609 89.167 72.63 89.587 72.679C90.008 72.73 90.39 72.792 90.729 72.867V73.829C90.551 73.793 90.363 73.759 90.165 73.725C89.97 73.696 89.769 73.665 89.567 73.644C89.363 73.623 89.164 73.6 88.963 73.583C88.763 73.568 88.574 73.562 88.396 73.562C88.17 73.562 87.977 73.577 87.822 73.603C87.665 73.625 87.538 73.666 87.442 73.707C87.345 73.754 87.275 73.806 87.232 73.863C87.189 73.922 87.168 73.981 87.168 74.044C87.168 74.154 87.215 74.243 87.31 74.315C87.405 74.383 87.536 74.442 87.702 74.483C87.869 74.529 88.045 74.563 88.228 74.587C88.411 74.617 88.591 74.648 88.763 74.671C89.034 74.712 89.302 74.757 89.573 74.817C89.844 74.873 90.086 74.952 90.302 75.049C90.519 75.153 90.694 75.28 90.831 75.445C90.968 75.607 91.038 75.809 91.038 76.059C91.038 76.33 90.955 76.573 90.787 76.77C90.619 76.972 90.387 77.14 90.086 77.277C89.788 77.411 89.429 77.508 89.01 77.577C88.591 77.643 88.131 77.677 87.63 77.677C87.135 77.677 86.688 77.656 86.292 77.607C85.895 77.559 85.566 77.498 85.307 77.423V76.473C85.728 76.573 86.119 76.636 86.473 76.669C86.83 76.703 87.163 76.723 87.47 76.723C87.707 76.723 87.928 76.71 88.134 76.691C88.339 76.67 88.514 76.634 88.664 76.589C88.812 76.541 88.929 76.485 89.016 76.41C89.1 76.341 89.143 76.255 89.143 76.156Z" fill="white"/>
      <path id="Vector_13" d="M99.604 73.4H99.636C99.749 73.296 99.892 73.203 100.066 73.105C100.238 73.006 100.436 72.924 100.657 72.852C100.878 72.779 101.122 72.718 101.388 72.672C101.657 72.627 101.942 72.607 102.245 72.607C102.531 72.607 102.806 72.628 103.075 72.669C103.343 72.709 103.588 72.773 103.807 72.857C104.029 72.941 104.224 73.045 104.394 73.183C104.564 73.318 104.698 73.479 104.795 73.662C104.849 73.765 104.885 73.879 104.903 74C104.921 74.122 104.932 74.261 104.932 74.42V77.554H103.014V74.605C103.014 74.476 103.005 74.366 102.991 74.27C102.973 74.177 102.944 74.095 102.903 74.027C102.804 73.875 102.656 73.761 102.462 73.699C102.263 73.632 102.025 73.595 101.744 73.595C101.373 73.595 101.015 73.654 100.673 73.759C100.331 73.865 100.026 74.027 99.763 74.234V77.556H97.844V72.73H99.43L99.604 73.4Z" fill="white"/>
      <path id="Vector_14" d="M111.204 72.729H113.262L114.436 74.477C114.878 75.143 115.19 75.633 115.374 75.955H115.408C115.543 75.707 115.827 75.245 116.263 74.569L117.478 72.729H119.56L114.508 79.875H112.611L114.411 77.291L111.204 72.729Z" fill="white"/>
      <path id="Vector_15" d="M130.45 77.042H130.417C130.309 77.111 130.182 77.184 130.025 77.256C129.874 77.329 129.702 77.401 129.506 77.464C129.316 77.527 129.095 77.58 128.859 77.621C128.623 77.66 128.363 77.68 128.089 77.68C127.716 77.68 127.365 77.643 127.044 77.576C126.726 77.505 126.44 77.402 126.211 77.263C125.982 77.127 125.796 76.965 125.666 76.779C125.533 76.588 125.47 76.373 125.47 76.133C125.47 75.873 125.544 75.642 125.699 75.435C125.851 75.23 126.066 75.058 126.345 74.914C126.616 74.768 126.949 74.663 127.331 74.587C127.711 74.514 128.138 74.475 128.601 74.475C128.943 74.475 129.254 74.491 129.542 74.514C129.828 74.541 130.079 74.577 130.292 74.614V74.421C130.292 74.308 130.263 74.198 130.201 74.095C130.139 73.992 130.039 73.9 129.903 73.818C129.764 73.738 129.586 73.672 129.364 73.627C129.141 73.58 128.872 73.554 128.551 73.554C128.163 73.554 127.777 73.582 127.388 73.633C126.996 73.69 126.576 73.766 126.123 73.874V72.95C126.519 72.843 126.936 72.761 127.379 72.705C127.819 72.647 128.285 72.619 128.771 72.616C129.345 72.616 129.842 72.659 130.275 72.746C130.706 72.832 131.062 72.95 131.351 73.1C131.638 73.252 131.857 73.43 131.998 73.637C132.139 73.844 132.212 74.071 132.212 74.307V76.129C132.212 76.445 132.22 76.722 132.232 76.949C132.24 77.178 132.253 77.384 132.265 77.562H130.529L130.45 77.042ZM130.294 75.499C130.111 75.473 129.9 75.45 129.664 75.426C129.43 75.405 129.185 75.395 128.943 75.395C128.472 75.395 128.101 75.455 127.832 75.567C127.559 75.68 127.421 75.858 127.421 76.09C127.421 76.198 127.452 76.296 127.516 76.376C127.579 76.46 127.662 76.523 127.768 76.578C127.872 76.632 127.997 76.672 128.133 76.697C128.274 76.722 128.422 76.736 128.578 76.736C128.771 76.736 128.957 76.718 129.129 76.689C129.303 76.66 129.464 76.62 129.606 76.57C129.754 76.525 129.883 76.466 130.002 76.411C130.118 76.348 130.216 76.293 130.296 76.232V75.5L130.294 75.499Z" fill="white"/>
      <path id="Vector_16" d="M139.791 76.227H141.969V77.557H139.791V76.227Z" fill="white"/>
      <path id="Vector_17" d="M156.98 75.145C156.98 75.524 156.886 75.872 156.703 76.18C156.519 76.493 156.256 76.758 155.913 76.985C155.57 77.21 155.158 77.379 154.672 77.502C154.186 77.624 153.643 77.685 153.044 77.685C152.428 77.685 151.877 77.623 151.391 77.502C150.901 77.379 150.49 77.208 150.149 76.985C149.809 76.762 149.546 76.495 149.37 76.18C149.186 75.867 149.099 75.523 149.099 75.145C149.099 74.764 149.189 74.419 149.373 74.11C149.558 73.796 149.817 73.532 150.164 73.303C150.504 73.082 150.92 72.91 151.403 72.789C151.889 72.667 152.434 72.605 153.03 72.605C153.649 72.605 154.201 72.667 154.684 72.789C155.173 72.911 155.586 73.081 155.928 73.303C156.268 73.53 156.528 73.793 156.708 74.11C156.891 74.42 156.98 74.764 156.98 75.145ZM154.995 75.145C154.995 74.889 154.948 74.665 154.849 74.465C154.75 74.27 154.617 74.11 154.445 73.973C154.271 73.84 154.064 73.744 153.82 73.673C153.577 73.61 153.314 73.573 153.027 73.573C152.748 73.573 152.486 73.605 152.249 73.673C152.007 73.739 151.803 73.84 151.631 73.973C151.459 74.11 151.322 74.27 151.225 74.465C151.128 74.662 151.08 74.887 151.08 75.145C151.08 75.401 151.128 75.625 151.225 75.823C151.328 76.018 151.459 76.182 151.635 76.311C151.809 76.444 152.018 76.543 152.258 76.612C152.499 76.678 152.764 76.716 153.049 76.716C153.335 76.716 153.598 76.682 153.833 76.612C154.068 76.547 154.275 76.446 154.447 76.311C154.621 76.182 154.759 76.018 154.853 75.823C154.947 75.625 154.995 75.402 154.995 75.145Z" fill="white"/>
      <path id="Vector_18" d="M168.484 73.667H168.32C167.732 73.667 167.215 73.721 166.771 73.828C166.327 73.933 165.98 74.099 165.741 74.324V77.554H163.82V72.726H165.408L165.586 73.4H165.618C165.846 73.154 166.157 72.961 166.556 72.82C166.952 72.675 167.425 72.609 167.984 72.609C168.173 72.609 168.342 72.616 168.486 72.63L168.484 73.667Z" fill="white"/>
      <path id="Vector_19" d="M179.848 77.682C179.848 77.619 179.85 77.535 179.854 77.436C179.856 77.336 179.864 77.256 179.875 77.19H179.857C179.742 77.253 179.601 77.307 179.452 77.369C179.3 77.43 179.127 77.477 178.945 77.528C178.761 77.576 178.558 77.614 178.339 77.641C178.119 77.669 177.891 77.682 177.658 77.682C177.241 77.682 176.835 77.636 176.437 77.544C176.041 77.454 175.689 77.309 175.381 77.109C175.071 76.914 174.824 76.66 174.636 76.347C174.448 76.037 174.349 75.665 174.349 75.236C174.349 74.798 174.448 74.42 174.638 74.09C174.829 73.764 175.08 73.488 175.4 73.274C175.72 73.05 176.087 72.887 176.502 72.778C176.914 72.665 177.339 72.61 177.775 72.61C178.255 72.61 178.681 72.673 179.052 72.798C179.427 72.923 179.73 73.08 179.97 73.277H180.001L180.083 72.734H181.765V77.65C181.765 77.931 181.728 78.174 181.656 78.379C181.579 78.581 181.468 78.76 181.325 78.916C181.15 79.102 180.929 79.258 180.663 79.395C180.394 79.531 180.091 79.642 179.75 79.734C179.408 79.822 179.029 79.888 178.62 79.933C178.211 79.982 177.775 79.999 177.314 79.999C177.054 79.999 176.804 79.993 176.554 79.978C176.306 79.965 176.073 79.951 175.853 79.928C175.636 79.907 175.435 79.883 175.251 79.858C175.072 79.829 174.92 79.796 174.795 79.768V78.81C175.151 78.88 175.526 78.935 175.917 78.974C176.31 79.013 176.72 79.035 177.149 79.035C178.005 79.035 178.671 78.931 179.141 78.726C179.613 78.522 179.846 78.211 179.846 77.797V77.682H179.848ZM178.131 76.739C178.325 76.739 178.51 76.72 178.684 76.691C178.858 76.662 179.014 76.627 179.163 76.58C179.309 76.533 179.435 76.478 179.557 76.425C179.671 76.369 179.77 76.314 179.85 76.258V74.1C179.645 73.954 179.395 73.829 179.09 73.727C178.788 73.626 178.467 73.58 178.128 73.577C178.007 73.577 177.883 73.586 177.752 73.6C177.62 73.621 177.482 73.653 177.354 73.703C177.215 73.748 177.086 73.807 176.965 73.89C176.84 73.968 176.736 74.068 176.649 74.189C176.557 74.305 176.481 74.451 176.424 74.62C176.361 74.785 176.336 74.974 176.336 75.195C176.336 75.439 176.374 75.654 176.451 75.843C176.523 76.032 176.639 76.197 176.79 76.331C176.939 76.465 177.129 76.565 177.353 76.64C177.575 76.704 177.836 76.739 178.131 76.739Z" fill="white"/>
      <path id="Vector_20" d="M189.296 76.227H191.475V77.557H189.296V76.227Z" fill="white"/>
      <path id="Vector_21" d="M202.469 77.682C201.68 77.682 201.03 77.6 200.51 77.436C199.992 77.274 199.602 77.049 199.335 76.77C199.195 76.624 199.09 76.457 199.023 76.278C198.954 76.096 198.918 75.898 198.918 75.678V72.729H200.841V75.553C200.841 75.717 200.858 75.857 200.897 75.973C200.936 76.09 200.995 76.196 201.067 76.282C201.2 76.428 201.38 76.538 201.621 76.607C201.856 76.677 202.142 76.713 202.47 76.713C202.818 76.713 203.115 76.672 203.357 76.593C203.605 76.514 203.792 76.391 203.914 76.23C204.039 76.077 204.102 75.855 204.102 75.58V72.727H206.022V75.676C206.022 76.071 205.914 76.402 205.688 76.666C205.563 76.818 205.403 76.958 205.206 77.083C205.011 77.209 204.778 77.312 204.512 77.402C204.241 77.488 203.945 77.554 203.607 77.606C203.262 77.656 202.884 77.682 202.469 77.682Z" fill="white"/>
      <path id="Vector_22" d="M217.795 77.042H217.762C217.658 77.111 217.526 77.184 217.372 77.256C217.225 77.329 217.047 77.401 216.853 77.464C216.659 77.527 216.443 77.58 216.205 77.621C215.969 77.66 215.711 77.68 215.435 77.68C215.064 77.68 214.712 77.643 214.392 77.576C214.07 77.505 213.788 77.402 213.558 77.263C213.329 77.127 213.144 76.965 213.013 76.779C212.88 76.588 212.812 76.373 212.812 76.133C212.812 75.873 212.888 75.642 213.044 75.435C213.192 75.23 213.41 75.058 213.689 74.914C213.963 74.768 214.294 74.663 214.676 74.587C215.062 74.514 215.484 74.475 215.948 74.475C216.286 74.475 216.598 74.491 216.886 74.514C217.172 74.541 217.423 74.577 217.64 74.614V74.421C217.64 74.308 217.609 74.198 217.545 74.095C217.483 73.991 217.382 73.9 217.244 73.818C217.104 73.738 216.929 73.672 216.705 73.627C216.488 73.58 216.217 73.554 215.897 73.554C215.506 73.554 215.119 73.582 214.731 73.633C214.339 73.69 213.919 73.766 213.466 73.874V72.95C213.86 72.843 214.279 72.761 214.723 72.705C215.165 72.649 215.629 72.619 216.115 72.616C216.688 72.616 217.186 72.659 217.617 72.746C218.047 72.832 218.406 72.95 218.692 73.1C218.981 73.252 219.2 73.43 219.341 73.637C219.485 73.844 219.555 74.071 219.555 74.307V76.129C219.555 76.445 219.563 76.722 219.574 76.949C219.584 77.178 219.595 77.384 219.606 77.562H217.873L217.795 77.042ZM217.641 75.499C217.456 75.473 217.247 75.45 217.009 75.426C216.772 75.405 216.531 75.395 216.287 75.395C215.814 75.395 215.445 75.455 215.174 75.567C214.903 75.68 214.768 75.858 214.768 76.09C214.768 76.198 214.798 76.296 214.86 76.376C214.923 76.46 215.007 76.523 215.112 76.578C215.216 76.632 215.341 76.672 215.481 76.697C215.622 76.722 215.768 76.736 215.925 76.736C216.118 76.736 216.305 76.718 216.477 76.689C216.649 76.66 216.811 76.62 216.955 76.57C217.101 76.525 217.231 76.466 217.347 76.411C217.464 76.348 217.564 76.293 217.646 76.232V75.499H217.641V75.499Z" fill="white"/>
    </g>
    <g id="ukr">
      <path id="Vector_23" d="M0.891998 3.104H3.265L4.619 5.564C5.13 6.501 5.49 7.191 5.702 7.639H5.741C5.896 7.285 6.226 6.637 6.731 5.694L8.132 3.107H10.534L4.705 13.154H2.518L4.591 9.513L0.891998 3.104Z" fill="white"/>
      <path id="Vector_24" d="M26 3.104H28.213V6.055H28.26L31.379 3.104H34.035L30.335 6.455L34.23 9.895H31.558L28.252 6.93H28.214V9.895H26V3.104Z" fill="white"/>
      <path id="Vector_25" d="M54.227 10.068C53.742 10.068 53.301 10.003 52.904 9.87C52.51 9.738 52.18 9.57 51.92 9.374H51.88C51.886 9.468 51.893 9.6 51.9 9.771C51.906 9.941 51.908 10.125 51.908 10.328V13.152H49.694V3.102H51.637L51.729 3.869H51.767C52.041 3.596 52.393 3.377 52.823 3.199C53.253 3.022 53.751 2.934 54.318 2.934C54.81 2.934 55.295 3.003 55.771 3.141C56.247 3.284 56.669 3.494 57.037 3.778C57.406 4.059 57.7 4.42 57.92 4.852C58.143 5.29 58.253 5.805 58.253 6.403C58.253 7.034 58.135 7.579 57.897 8.041C57.66 8.499 57.351 8.88 56.962 9.183C56.577 9.486 56.149 9.706 55.679 9.853C55.21 9.994 54.725 10.068 54.227 10.068ZM53.937 4.27C53.552 4.274 53.183 4.344 52.835 4.483C52.486 4.623 52.177 4.807 51.911 5.042V8.069C52.005 8.145 52.118 8.225 52.246 8.305C52.377 8.384 52.524 8.454 52.686 8.523C52.848 8.586 53.028 8.641 53.224 8.684C53.42 8.725 53.624 8.747 53.836 8.747C54.178 8.747 54.484 8.691 54.752 8.58C55.021 8.473 55.242 8.316 55.42 8.116C55.598 7.914 55.733 7.676 55.826 7.396C55.92 7.12 55.966 6.808 55.966 6.466C55.966 6.105 55.919 5.78 55.822 5.506C55.725 5.234 55.59 5.002 55.409 4.818C55.232 4.638 55.02 4.5 54.77 4.404C54.519 4.314 54.243 4.27 53.937 4.27Z" fill="white"/>
      <path id="Vector_26" d="M79.697 9.172H79.66C79.535 9.273 79.386 9.372 79.211 9.475C79.037 9.579 78.838 9.675 78.615 9.766C78.39 9.858 78.14 9.93 77.865 9.987C77.591 10.043 77.296 10.073 76.978 10.073C76.548 10.073 76.147 10.02 75.773 9.92C75.399 9.82 75.079 9.675 74.81 9.487C74.543 9.296 74.331 9.067 74.181 8.799C74.029 8.529 73.951 8.232 73.951 7.9C73.951 7.537 74.039 7.211 74.218 6.921C74.396 6.633 74.643 6.386 74.961 6.187C75.277 5.986 75.657 5.833 76.1 5.726C76.543 5.622 77.033 5.574 77.568 5.574C77.961 5.574 78.321 5.593 78.651 5.63C78.982 5.669 79.272 5.712 79.521 5.761V5.487C79.521 5.329 79.483 5.174 79.414 5.03C79.341 4.883 79.226 4.753 79.068 4.634C78.909 4.525 78.703 4.428 78.447 4.363C78.19 4.296 77.878 4.26 77.512 4.26C77.061 4.26 76.614 4.297 76.165 4.372C75.717 4.445 75.23 4.56 74.708 4.709V3.414C75.163 3.264 75.645 3.15 76.156 3.068C76.665 2.988 77.202 2.947 77.762 2.941C78.423 2.941 79 3.004 79.494 3.127C79.991 3.248 80.403 3.413 80.736 3.625C81.07 3.838 81.319 4.089 81.485 4.379C81.652 4.669 81.732 4.984 81.732 5.324V7.882C81.732 8.328 81.737 8.714 81.752 9.037C81.763 9.357 81.776 9.644 81.789 9.894H79.789L79.697 9.172ZM79.52 6.999C79.31 6.961 79.066 6.928 78.792 6.896C78.519 6.867 78.242 6.849 77.96 6.849C77.418 6.849 76.99 6.931 76.675 7.091C76.361 7.25 76.203 7.495 76.203 7.826C76.203 7.979 76.238 8.116 76.311 8.231C76.382 8.342 76.478 8.44 76.599 8.512C76.721 8.586 76.863 8.645 77.025 8.68C77.186 8.715 77.357 8.739 77.537 8.739C77.762 8.739 77.974 8.718 78.173 8.672C78.372 8.625 78.555 8.57 78.723 8.505C78.893 8.441 79.043 8.361 79.177 8.277C79.31 8.19 79.424 8.108 79.518 8.03V6.997L79.52 6.999Z" fill="white"/>
      <path id="Vector_27" d="M96.668 0H98.706V1.547H96.668V0ZM98.433 3.104H100.648V9.895H98.433V3.104ZM100.498 0H102.536V1.547H100.498V0Z" fill="white"/>
      <path id="Vector_28" d="M123.159 9.893V7.09H119.507V9.893H117.292V3.104H119.507V5.682H123.159V3.104H125.372V9.895L123.159 9.893Z" fill="white"/>
      <path id="Vector_29" d="M148.479 9.747C148.202 9.834 147.856 9.913 147.454 9.975C147.048 10.038 146.622 10.073 146.171 10.073C145.521 10.073 144.903 10.002 144.341 9.864C143.777 9.72 143.28 9.51 142.857 9.223C142.437 8.94 142.103 8.577 141.859 8.139C141.615 7.703 141.494 7.196 141.494 6.612C141.494 5.959 141.636 5.396 141.914 4.93C142.193 4.462 142.559 4.082 143.002 3.79C143.445 3.498 143.947 3.283 144.507 3.144C145.065 3.004 145.615 2.937 146.156 2.937C146.56 2.937 146.947 2.962 147.322 3.017C147.697 3.073 148.035 3.144 148.338 3.237V4.59C148.067 4.503 147.774 4.432 147.468 4.376C147.158 4.322 146.827 4.294 146.473 4.294C146.119 4.294 145.78 4.335 145.456 4.418C145.13 4.499 144.844 4.628 144.598 4.809C144.348 4.988 144.153 5.221 144.004 5.514C143.858 5.807 143.785 6.16 143.785 6.57C143.785 6.87 143.845 7.149 143.953 7.413C144.064 7.677 144.226 7.901 144.443 8.09C144.656 8.278 144.927 8.43 145.261 8.542C145.594 8.654 145.99 8.714 146.445 8.714C146.849 8.714 147.216 8.687 147.549 8.623C147.88 8.561 148.19 8.488 148.485 8.399L148.479 9.747Z" fill="white"/>
      <path id="Vector_30" d="M166.766 3.104V5.538C167.225 5.504 167.692 5.479 168.16 5.479C168.875 5.479 169.502 5.542 170.034 5.663C170.565 5.78 171.001 5.944 171.338 6.145C171.675 6.352 171.922 6.589 172.079 6.866C172.237 7.137 172.315 7.43 172.315 7.745C172.315 8.138 172.2 8.481 171.966 8.774C171.731 9.065 171.404 9.305 170.987 9.502C170.569 9.692 170.08 9.839 169.507 9.935C168.939 10.031 168.318 10.076 167.644 10.076C166.498 10.076 165.468 9.988 164.556 9.805V3.107H166.769V3.104H166.766ZM167.766 8.71C168.457 8.71 169.007 8.632 169.414 8.481C169.818 8.327 170.025 8.085 170.025 7.766C170.025 7.627 169.986 7.505 169.909 7.391C169.832 7.284 169.709 7.184 169.542 7.106C169.374 7.021 169.154 6.958 168.887 6.913C168.62 6.866 168.296 6.841 167.916 6.841C167.536 6.841 167.152 6.862 166.768 6.902V8.673C167.072 8.695 167.406 8.71 167.766 8.71Z" fill="white"/>
      <path id="Vector_31" d="M188.436 3.104H190.651V6.055H190.696L193.813 3.104H196.468L192.768 6.455L196.664 9.895H193.994L190.685 6.932H190.646V9.895H188.433L188.436 3.104Z" fill="white"/>
      <path id="Vector_32" d="M217.456 9.172H217.42C217.294 9.273 217.147 9.372 216.971 9.475C216.798 9.579 216.6 9.675 216.374 9.766C216.15 9.858 215.9 9.93 215.624 9.987C215.353 10.043 215.057 10.073 214.738 10.073C214.308 10.073 213.907 10.02 213.534 9.92C213.159 9.819 212.84 9.675 212.57 9.487C212.3 9.296 212.091 9.067 211.939 8.799C211.789 8.529 211.71 8.232 211.71 7.9C211.71 7.537 211.798 7.211 211.977 6.921C212.157 6.633 212.403 6.386 212.721 6.187C213.035 5.986 213.415 5.833 213.86 5.726C214.3 5.622 214.792 5.574 215.327 5.574C215.719 5.574 216.08 5.593 216.411 5.63C216.741 5.669 217.03 5.712 217.282 5.761V5.487C217.282 5.329 217.244 5.174 217.175 5.03C217.103 4.883 216.986 4.753 216.827 4.634C216.668 4.525 216.462 4.428 216.208 4.363C215.95 4.297 215.644 4.259 215.27 4.259C214.824 4.259 214.373 4.296 213.924 4.371C213.479 4.444 212.986 4.559 212.466 4.708V3.414C212.922 3.264 213.404 3.15 213.913 3.068C214.426 2.988 214.958 2.947 215.519 2.941C216.179 2.941 216.757 3.004 217.252 3.127C217.751 3.248 218.163 3.413 218.496 3.625C218.829 3.838 219.078 4.089 219.243 4.379C219.41 4.669 219.49 4.984 219.49 5.324V7.882C219.49 8.328 219.495 8.714 219.511 9.037C219.523 9.357 219.535 9.644 219.547 9.894H217.547L217.456 9.172ZM217.279 6.999C217.066 6.961 216.824 6.928 216.547 6.896C216.276 6.867 215.997 6.849 215.718 6.849C215.178 6.849 214.747 6.931 214.436 7.091C214.123 7.25 213.962 7.495 213.962 7.826C213.962 7.979 213.998 8.116 214.068 8.231C214.14 8.342 214.236 8.44 214.357 8.512C214.482 8.586 214.621 8.645 214.783 8.68C214.943 8.715 215.117 8.739 215.295 8.739C215.52 8.739 215.733 8.718 215.932 8.672C216.129 8.625 216.313 8.57 216.481 8.505C216.649 8.441 216.801 8.361 216.936 8.277C217.071 8.19 217.18 8.108 217.276 8.03L217.279 6.999Z" fill="white"/>
    </g>
  </g>
</svg>
