<?xml version="1.0" encoding="utf-8"?>
<!-- Generator: Adobe Illustrator 16.0.0, SVG Export Plug-In . SVG Version: 6.00 Build 0)  -->
<!DOCTYPE svg PUBLIC "-//W3C//DTD SVG 1.1//EN" "http://www.w3.org/Graphics/SVG/1.1/DTD/svg11.dtd">
<svg version="1.1" id="Layer_1" xmlns="http://www.w3.org/2000/svg" xmlns:xlink="http://www.w3.org/1999/xlink" x="0px" y="0px"
	 width="220px" height="80px" viewBox="0 0 220 80" enable-background="new 0 0 220 80" xml:space="preserve">
<g>
	<g>
		<path fill="#ffffff" d="M41.572,64.58h-11.96V27.182H11.957V64.58H0V18.212h41.572V64.58L41.572,64.58z"/>
		<path fill="#ffffff" d="M65.929,24.627H54.065v-8.501h11.864V24.627z M65.618,64.58H54.376V29.609h11.242V64.58z"/>
		<path fill="#ffffff" d="M99.349,65.484c-3.447,0-6.627-0.512-9.544-1.527s-5.424-2.531-7.521-4.546
			c-2.098-2.013-3.721-4.524-4.874-7.535c-1.151-3.01-1.728-6.487-1.728-10.433c0-3.678,0.548-7.009,1.65-9.998
			c1.1-2.99,2.698-5.554,4.795-7.69c2.013-2.056,4.511-3.646,7.489-4.765c2.98-1.122,6.234-1.681,9.763-1.681
			c1.952,0,3.711,0.106,5.276,0.322c1.569,0.224,3.017,0.505,4.346,0.858c1.39,0.394,2.653,0.837,3.785,1.321
			c1.131,0.484,2.122,0.938,2.972,1.354v11.242h-1.369c-0.582-0.496-1.313-1.083-2.197-1.77c-0.883-0.682-1.884-1.352-3.004-2.014
			c-1.143-0.659-2.378-1.218-3.706-1.672c-1.33-0.455-2.75-0.683-4.267-0.683c-1.682,0-3.28,0.265-4.797,0.794
			c-1.515,0.525-2.916,1.4-4.203,2.625c-1.225,1.182-2.216,2.741-2.974,4.689c-0.758,1.946-1.136,4.313-1.136,7.085
			c0,2.905,0.41,5.326,1.23,7.273c0.819,1.945,1.853,3.479,3.097,4.6c1.267,1.141,2.679,1.953,4.236,2.438
			c1.556,0.484,3.093,0.729,4.608,0.729c1.452,0,2.89-0.216,4.312-0.648c1.422-0.434,2.735-1.022,3.939-1.768
			c1.018-0.598,1.963-1.237,2.833-1.919c0.871-0.683,1.592-1.271,2.15-1.768h1.243v11.086c-1.161,0.521-2.274,1.007-3.329,1.465
			c-1.06,0.458-2.172,0.853-3.334,1.185c-1.515,0.438-2.937,0.769-4.266,0.996C103.501,65.368,101.674,65.484,99.349,65.484z"/>
		<path fill="#ffffff" d="M167.707,64.58h-11.956V44.15h-17.658v20.43h-11.956V18.212h11.956v16.974h17.658V18.212h11.956V64.58z"/>
		<path fill="#ffffff" d="M219.998,64.58h-11.896V47.579h-6.498L189.917,64.58h-14.169l13.855-19.215
			c-2.804-1.202-4.998-2.906-6.584-5.107c-1.59-2.197-2.386-5.084-2.386-8.656c0-2.363,0.526-4.43,1.574-6.195
			c1.05-1.766,2.385-3.206,4-4.327c1.412-0.979,3.129-1.697,5.153-2.164c2.027-0.468,4.345-0.699,6.963-0.699h21.675L219.998,64.58
			L219.998,64.58z M208.102,39.232V26.744h-5.918c-1.806,0-3.195,0.059-4.172,0.172c-0.977,0.114-1.922,0.514-2.832,1.199
			c-0.707,0.52-1.246,1.199-1.621,2.039c-0.375,0.842-0.561,1.771-0.561,2.785c0,1.061,0.195,2.01,0.591,2.85
			c0.394,0.842,0.943,1.531,1.652,2.07c0.788,0.623,1.719,1.008,2.784,1.148c1.07,0.147,2.478,0.223,4.219,0.223L208.102,39.232
			L208.102,39.232z"/>
	</g>
	<g>
		<path fill="#ffffff" d="M6.112,74.038c-0.15,0.48-0.331,0.95-0.535,1.401L4.63,77.555H2.744L0,72.728h2.024l1.014,2.023
			c0.23,0.469,0.437,0.924,0.616,1.361h0.031c0.15-0.425,0.333-0.879,0.543-1.361l0.898-2.023H7.15l0.883,2.023
			c0.188,0.428,0.37,0.884,0.542,1.361h0.032c0.185-0.447,0.389-0.901,0.617-1.361l1.012-2.023h2.024l-2.744,4.828H7.629
			L6.682,75.44c-0.215-0.477-0.395-0.94-0.535-1.4L6.112,74.038L6.112,74.038z"/>
		<path fill="#ffffff" d="M23.673,74.038c-0.151,0.48-0.331,0.95-0.535,1.401l-0.948,2.115h-1.885l-2.746-4.83h2.025l1.013,2.024
			c0.232,0.468,0.436,0.924,0.614,1.36h0.032c0.15-0.426,0.333-0.881,0.543-1.36l0.898-2.024h2.026l0.883,2.024
			c0.188,0.429,0.37,0.884,0.542,1.36h0.033c0.184-0.446,0.388-0.9,0.616-1.36l1.012-2.024h2.024l-2.745,4.83H25.19l-0.948-2.115
			c-0.215-0.478-0.394-0.941-0.535-1.401H23.673z"/>
		<path fill="#ffffff" d="M41.233,74.038c-0.15,0.48-0.33,0.95-0.534,1.401l-0.946,2.115h-1.886l-2.745-4.83h2.025l1.012,2.024
			c0.232,0.468,0.438,0.924,0.615,1.36h0.032c0.152-0.426,0.333-0.881,0.543-1.36l0.899-2.024h2.025l0.881,2.024
			c0.188,0.429,0.37,0.884,0.543,1.36h0.032c0.183-0.446,0.389-0.9,0.616-1.36l1.011-2.024h2.025l-2.745,4.83h-1.885l-0.947-2.115
			c-0.217-0.478-0.396-0.941-0.535-1.401H41.233L41.233,74.038z"/>
		<path fill="#ffffff" d="M52.445,76.227h2.178v1.33h-2.178V76.227z"/>
		<path fill="#ffffff" d="M66.08,77.682c-0.421,0-0.803-0.047-1.146-0.142c-0.344-0.097-0.629-0.212-0.855-0.354h-0.033
			c0.005,0.065,0.011,0.16,0.016,0.28c0.004,0.122,0.009,0.253,0.009,0.397v2.009h-1.92v-7.146h1.684l0.082,0.543h0.032
			c0.237-0.19,0.542-0.354,0.915-0.478c0.372-0.124,0.804-0.188,1.297-0.188c0.425,0,0.845,0.051,1.257,0.146
			c0.414,0.099,0.778,0.248,1.096,0.451c0.319,0.202,0.574,0.458,0.765,0.767c0.193,0.313,0.288,0.676,0.288,1.104
			c0,0.443-0.103,0.836-0.307,1.161c-0.204,0.325-0.475,0.6-0.809,0.813s-0.706,0.374-1.114,0.476
			C66.93,77.63,66.511,77.682,66.08,77.682z M65.828,73.557c-0.335,0.002-0.653,0.057-0.956,0.151
			c-0.304,0.099-0.569,0.229-0.801,0.397v2.15c0.079,0.061,0.178,0.113,0.29,0.167c0.114,0.062,0.24,0.107,0.382,0.155
			c0.14,0.047,0.292,0.084,0.464,0.111c0.17,0.031,0.347,0.045,0.531,0.045c0.296,0,0.561-0.037,0.793-0.115
			c0.233-0.077,0.426-0.188,0.58-0.331c0.153-0.146,0.271-0.313,0.351-0.511c0.082-0.196,0.124-0.42,0.124-0.661
			c0-0.259-0.042-0.484-0.127-0.685c-0.083-0.193-0.202-0.356-0.354-0.486c-0.154-0.129-0.34-0.229-0.556-0.293
			C66.333,73.589,66.091,73.557,65.828,73.557z"/>
		<path fill="#ffffff" d="M76.409,70.34h2.015v1.283h-2.015V70.34z M76.458,72.729h1.918v4.828h-1.918V72.729z"/>
		<path fill="#ffffff" d="M89.143,76.156c0-0.104-0.046-0.189-0.142-0.256c-0.094-0.063-0.22-0.121-0.376-0.166
			c-0.155-0.045-0.335-0.084-0.537-0.115c-0.202-0.032-0.415-0.064-0.636-0.101c-0.28-0.048-0.55-0.101-0.81-0.161
			c-0.26-0.063-0.488-0.146-0.684-0.241c-0.197-0.103-0.354-0.228-0.471-0.378c-0.115-0.15-0.173-0.336-0.173-0.559
			c0-0.271,0.077-0.5,0.234-0.695c0.157-0.196,0.368-0.361,0.636-0.49s0.578-0.229,0.93-0.288c0.354-0.063,0.729-0.097,1.122-0.097
			c0.481,0,0.931,0.021,1.351,0.07c0.421,0.051,0.803,0.113,1.142,0.188v0.962c-0.178-0.036-0.366-0.07-0.564-0.104
			c-0.195-0.029-0.396-0.06-0.598-0.081c-0.204-0.021-0.403-0.044-0.604-0.061c-0.2-0.015-0.389-0.021-0.567-0.021
			c-0.226,0-0.419,0.015-0.574,0.041c-0.157,0.022-0.284,0.063-0.38,0.104c-0.097,0.047-0.167,0.099-0.21,0.156
			c-0.043,0.059-0.064,0.118-0.064,0.181c0,0.11,0.047,0.199,0.142,0.271c0.095,0.068,0.226,0.127,0.392,0.168
			c0.167,0.046,0.343,0.08,0.526,0.104c0.183,0.03,0.363,0.061,0.535,0.084c0.271,0.041,0.539,0.086,0.81,0.146
			c0.271,0.056,0.513,0.135,0.729,0.232c0.217,0.104,0.392,0.231,0.529,0.396c0.137,0.162,0.207,0.364,0.207,0.614
			c0,0.271-0.083,0.514-0.251,0.711c-0.168,0.202-0.4,0.37-0.701,0.507c-0.298,0.134-0.657,0.231-1.076,0.3
			c-0.419,0.066-0.879,0.1-1.38,0.1c-0.495,0-0.942-0.021-1.338-0.07c-0.397-0.048-0.726-0.109-0.985-0.184v-0.95
			c0.421,0.1,0.812,0.163,1.166,0.196c0.357,0.034,0.69,0.054,0.997,0.054c0.237,0,0.458-0.013,0.664-0.032
			c0.205-0.021,0.38-0.057,0.53-0.102c0.148-0.048,0.265-0.104,0.352-0.179C89.1,76.341,89.143,76.255,89.143,76.156z"/>
		<path fill="#ffffff" d="M99.604,73.4h0.032c0.113-0.104,0.256-0.197,0.43-0.295c0.172-0.099,0.37-0.181,0.591-0.253
			c0.221-0.073,0.465-0.134,0.731-0.18c0.269-0.045,0.554-0.065,0.857-0.065c0.286,0,0.561,0.021,0.83,0.062
			c0.268,0.04,0.513,0.104,0.732,0.188c0.222,0.084,0.417,0.188,0.587,0.326c0.17,0.135,0.304,0.296,0.401,0.479
			c0.054,0.103,0.09,0.217,0.108,0.338c0.018,0.122,0.029,0.261,0.029,0.42v3.134h-1.918v-2.949c0-0.129-0.009-0.239-0.023-0.335
			c-0.018-0.093-0.047-0.175-0.088-0.243c-0.099-0.152-0.247-0.266-0.441-0.328c-0.199-0.067-0.437-0.104-0.718-0.104
			c-0.371,0-0.729,0.059-1.071,0.164c-0.342,0.106-0.647,0.268-0.91,0.475v3.322h-1.919V72.73h1.586L99.604,73.4z"/>
		<path fill="#ffffff" d="M111.204,72.729h2.058l1.174,1.748c0.442,0.666,0.754,1.156,0.938,1.478h0.034
			c0.135-0.248,0.419-0.71,0.855-1.386l1.215-1.84h2.082l-5.052,7.146h-1.897l1.8-2.584L111.204,72.729z"/>
		<path fill="#ffffff" d="M130.45,77.042h-0.033c-0.108,0.069-0.235,0.142-0.392,0.214c-0.151,0.073-0.323,0.145-0.519,0.208
			c-0.19,0.063-0.411,0.116-0.647,0.157c-0.236,0.039-0.496,0.059-0.77,0.059c-0.373,0-0.724-0.037-1.045-0.104
			c-0.318-0.071-0.604-0.174-0.833-0.313c-0.229-0.136-0.415-0.298-0.545-0.484c-0.133-0.191-0.196-0.406-0.196-0.646
			c0-0.26,0.074-0.491,0.229-0.698c0.152-0.205,0.367-0.377,0.646-0.521c0.271-0.146,0.604-0.251,0.986-0.327
			c0.38-0.073,0.807-0.112,1.27-0.112c0.342,0,0.653,0.016,0.941,0.039c0.286,0.027,0.537,0.063,0.75,0.1v-0.193
			c0-0.113-0.029-0.223-0.091-0.326c-0.062-0.103-0.162-0.195-0.298-0.277c-0.139-0.08-0.317-0.146-0.539-0.191
			c-0.223-0.047-0.492-0.073-0.813-0.073c-0.388,0-0.774,0.028-1.163,0.079c-0.392,0.057-0.812,0.133-1.265,0.241V72.95
			c0.396-0.107,0.813-0.189,1.256-0.245c0.44-0.058,0.906-0.086,1.392-0.089c0.574,0,1.071,0.043,1.504,0.13
			c0.431,0.086,0.787,0.204,1.076,0.354c0.287,0.152,0.506,0.33,0.647,0.537s0.214,0.434,0.214,0.67v1.822
			c0,0.316,0.008,0.593,0.02,0.82c0.008,0.229,0.021,0.435,0.033,0.613h-1.736L130.45,77.042z M130.294,75.499
			c-0.183-0.026-0.394-0.049-0.63-0.073c-0.234-0.021-0.479-0.031-0.721-0.031c-0.471,0-0.842,0.06-1.111,0.172
			c-0.273,0.113-0.411,0.291-0.411,0.523c0,0.108,0.031,0.206,0.095,0.286c0.063,0.084,0.146,0.147,0.252,0.202
			c0.104,0.054,0.229,0.094,0.365,0.119c0.141,0.025,0.289,0.039,0.445,0.039c0.193,0,0.379-0.018,0.551-0.047
			c0.174-0.029,0.335-0.069,0.477-0.119c0.148-0.045,0.277-0.104,0.396-0.159c0.116-0.063,0.214-0.118,0.294-0.179V75.5
			L130.294,75.499L130.294,75.499z"/>
		<path fill="#ffffff" d="M139.791,76.227h2.178v1.33h-2.178V76.227z"/>
		<path fill="#ffffff" d="M156.98,75.145c0,0.379-0.094,0.727-0.277,1.035c-0.184,0.313-0.447,0.578-0.79,0.805
			c-0.343,0.225-0.755,0.394-1.241,0.517c-0.486,0.122-1.029,0.183-1.628,0.183c-0.616,0-1.167-0.062-1.653-0.183
			c-0.49-0.123-0.901-0.294-1.242-0.517c-0.34-0.223-0.603-0.49-0.779-0.805c-0.184-0.313-0.271-0.657-0.271-1.035
			c0-0.381,0.09-0.726,0.274-1.035c0.185-0.314,0.444-0.578,0.791-0.807c0.34-0.221,0.756-0.393,1.239-0.514
			c0.486-0.122,1.031-0.184,1.627-0.184c0.619,0,1.171,0.062,1.654,0.184c0.489,0.122,0.902,0.292,1.244,0.514
			c0.34,0.227,0.6,0.49,0.78,0.807C156.891,74.42,156.98,74.764,156.98,75.145z M154.995,75.145c0-0.256-0.047-0.48-0.146-0.68
			c-0.099-0.195-0.232-0.355-0.404-0.492c-0.174-0.133-0.381-0.229-0.625-0.3c-0.243-0.063-0.506-0.1-0.793-0.1
			c-0.279,0-0.541,0.032-0.778,0.1c-0.242,0.066-0.446,0.167-0.618,0.3c-0.172,0.137-0.309,0.297-0.406,0.492
			c-0.097,0.197-0.145,0.422-0.145,0.68c0,0.256,0.048,0.48,0.145,0.678c0.103,0.195,0.234,0.359,0.41,0.488
			c0.174,0.133,0.383,0.232,0.623,0.301c0.241,0.066,0.506,0.104,0.791,0.104c0.286,0,0.549-0.034,0.784-0.104
			c0.235-0.065,0.442-0.166,0.614-0.301c0.174-0.129,0.312-0.293,0.406-0.488C154.947,75.625,154.995,75.402,154.995,75.145z"/>
		<path fill="#ffffff" d="M168.484,73.667h-0.164c-0.588,0-1.105,0.054-1.549,0.161c-0.444,0.105-0.791,0.271-1.03,0.496v3.23h-1.921
			v-4.828h1.588l0.178,0.674h0.032c0.228-0.246,0.539-0.439,0.938-0.58c0.396-0.145,0.869-0.211,1.428-0.211
			c0.189,0,0.358,0.007,0.502,0.021L168.484,73.667L168.484,73.667z"/>
		<path fill="#ffffff" d="M179.848,77.682c0-0.063,0.002-0.147,0.006-0.246c0.002-0.1,0.01-0.18,0.021-0.246h-0.018
			c-0.115,0.063-0.256,0.117-0.405,0.179c-0.152,0.061-0.325,0.108-0.507,0.159c-0.184,0.048-0.387,0.086-0.606,0.113
			c-0.22,0.028-0.448,0.041-0.681,0.041c-0.417,0-0.823-0.046-1.221-0.138c-0.396-0.09-0.748-0.235-1.056-0.435
			c-0.31-0.195-0.557-0.449-0.745-0.762c-0.188-0.31-0.287-0.682-0.287-1.111c0-0.438,0.099-0.816,0.289-1.146
			c0.191-0.326,0.442-0.602,0.762-0.816c0.32-0.224,0.687-0.387,1.102-0.496c0.412-0.113,0.837-0.168,1.273-0.168
			c0.48,0,0.906,0.063,1.277,0.188c0.375,0.125,0.678,0.282,0.918,0.479h0.031l0.082-0.543h1.682v4.916
			c0,0.281-0.037,0.524-0.109,0.729c-0.077,0.202-0.188,0.381-0.331,0.537c-0.175,0.186-0.396,0.342-0.662,0.479
			c-0.269,0.136-0.572,0.247-0.913,0.339c-0.342,0.088-0.721,0.154-1.13,0.199c-0.409,0.049-0.845,0.066-1.306,0.066
			c-0.26,0-0.51-0.006-0.76-0.021c-0.248-0.013-0.481-0.027-0.701-0.05c-0.217-0.021-0.418-0.045-0.602-0.07
			c-0.179-0.029-0.331-0.062-0.456-0.09V78.81c0.356,0.07,0.731,0.125,1.122,0.164c0.393,0.039,0.803,0.061,1.232,0.061
			c0.856,0,1.522-0.104,1.992-0.309c0.472-0.204,0.705-0.515,0.705-0.929V77.682L179.848,77.682z M178.131,76.739
			c0.194,0,0.379-0.019,0.553-0.048s0.33-0.064,0.479-0.111c0.146-0.047,0.272-0.102,0.394-0.155
			c0.114-0.056,0.213-0.111,0.293-0.167V74.1c-0.205-0.146-0.455-0.271-0.76-0.373c-0.302-0.101-0.623-0.147-0.962-0.15
			c-0.121,0-0.245,0.009-0.376,0.023c-0.132,0.021-0.27,0.053-0.398,0.103c-0.139,0.045-0.268,0.104-0.389,0.187
			c-0.125,0.078-0.229,0.178-0.316,0.299c-0.092,0.116-0.168,0.262-0.225,0.431c-0.063,0.165-0.088,0.354-0.088,0.575
			c0,0.244,0.038,0.459,0.115,0.648c0.072,0.189,0.188,0.354,0.339,0.488c0.149,0.134,0.339,0.234,0.563,0.309
			C177.575,76.704,177.836,76.739,178.131,76.739z"/>
		<path fill="#ffffff" d="M189.296,76.227h2.179v1.33h-2.179V76.227z"/>
		<path fill="#ffffff" d="M202.469,77.682c-0.789,0-1.439-0.082-1.959-0.246c-0.518-0.162-0.908-0.387-1.175-0.666
			c-0.14-0.146-0.245-0.313-0.312-0.492c-0.069-0.182-0.105-0.38-0.105-0.6v-2.949h1.923v2.824c0,0.164,0.017,0.304,0.056,0.42
			c0.039,0.117,0.098,0.223,0.17,0.309c0.133,0.146,0.313,0.256,0.554,0.325c0.235,0.07,0.521,0.106,0.849,0.106
			c0.348,0,0.645-0.041,0.887-0.12c0.248-0.079,0.435-0.202,0.557-0.363c0.125-0.153,0.188-0.375,0.188-0.65v-2.853h1.92v2.949
			c0,0.395-0.108,0.726-0.334,0.99c-0.125,0.152-0.285,0.292-0.482,0.417c-0.195,0.126-0.428,0.229-0.694,0.319
			c-0.271,0.086-0.567,0.152-0.905,0.204C203.262,77.656,202.884,77.682,202.469,77.682z"/>
		<path fill="#ffffff" d="M217.795,77.042h-0.033c-0.104,0.069-0.236,0.142-0.39,0.214c-0.147,0.073-0.325,0.145-0.519,0.208
			s-0.41,0.116-0.648,0.157c-0.236,0.039-0.494,0.059-0.77,0.059c-0.371,0-0.723-0.037-1.043-0.104
			c-0.322-0.071-0.604-0.174-0.834-0.313c-0.229-0.136-0.414-0.298-0.545-0.484c-0.133-0.191-0.201-0.406-0.201-0.646
			c0-0.26,0.076-0.491,0.232-0.698c0.148-0.205,0.366-0.377,0.645-0.521c0.274-0.146,0.605-0.251,0.987-0.327
			c0.386-0.073,0.808-0.112,1.272-0.112c0.338,0,0.65,0.016,0.938,0.039c0.286,0.027,0.537,0.063,0.754,0.1v-0.193
			c0-0.113-0.031-0.223-0.095-0.326c-0.062-0.104-0.163-0.195-0.301-0.277c-0.14-0.08-0.315-0.146-0.539-0.191
			c-0.217-0.047-0.488-0.073-0.808-0.073c-0.391,0-0.778,0.028-1.166,0.079c-0.392,0.057-0.812,0.133-1.265,0.241V72.95
			c0.394-0.107,0.813-0.189,1.257-0.245c0.442-0.056,0.906-0.086,1.392-0.089c0.573,0,1.071,0.043,1.502,0.13
			c0.43,0.086,0.789,0.204,1.075,0.354c0.289,0.152,0.508,0.33,0.649,0.537c0.144,0.207,0.214,0.434,0.214,0.67v1.822
			c0,0.316,0.008,0.593,0.019,0.82c0.01,0.229,0.021,0.435,0.032,0.613h-1.733L217.795,77.042z M217.641,75.499
			c-0.185-0.026-0.394-0.049-0.632-0.073c-0.237-0.021-0.478-0.031-0.722-0.031c-0.473,0-0.842,0.06-1.113,0.172
			c-0.271,0.113-0.406,0.291-0.406,0.523c0,0.108,0.03,0.206,0.092,0.286c0.063,0.084,0.147,0.147,0.252,0.202
			c0.104,0.054,0.229,0.094,0.369,0.119c0.141,0.025,0.287,0.039,0.444,0.039c0.193,0,0.38-0.018,0.552-0.047
			s0.334-0.069,0.478-0.119c0.146-0.045,0.276-0.104,0.392-0.159c0.117-0.063,0.217-0.118,0.299-0.179v-0.733H217.641
			L217.641,75.499z"/>
	</g>
	<g>
		<path fill="#ffffff" d="M0.892,3.104h2.373l1.354,2.46C5.13,6.501,5.49,7.191,5.702,7.639h0.039c0.155-0.354,0.485-1.002,0.99-1.945
			l1.401-2.587h2.402L4.705,13.154H2.518l2.073-3.641L0.892,3.104z"/>
		<path fill="#ffffff" d="M26,3.104h2.213v2.951h0.047l3.119-2.951h2.656l-3.7,3.351l3.895,3.44h-2.672L28.252,6.93h-0.038v2.965H26
			V3.104L26,3.104z"/>
		<path fill="#ffffff" d="M54.227,10.068c-0.485,0-0.926-0.065-1.323-0.198c-0.394-0.132-0.724-0.3-0.984-0.496h-0.04
			c0.006,0.094,0.013,0.226,0.02,0.397c0.006,0.17,0.008,0.354,0.008,0.557v2.824h-2.214V3.102h1.943l0.092,0.767h0.038
			c0.274-0.273,0.626-0.492,1.056-0.67c0.43-0.177,0.928-0.265,1.495-0.265c0.492,0,0.977,0.069,1.453,0.207
			c0.476,0.143,0.898,0.353,1.266,0.637C57.406,4.059,57.7,4.42,57.92,4.852c0.223,0.438,0.333,0.953,0.333,1.551
			c0,0.631-0.118,1.176-0.356,1.638c-0.237,0.458-0.546,0.839-0.935,1.142c-0.385,0.303-0.813,0.523-1.283,0.67
			C55.21,9.994,54.725,10.068,54.227,10.068z M53.937,4.27c-0.385,0.004-0.754,0.074-1.102,0.213
			c-0.349,0.14-0.658,0.324-0.924,0.559v3.027c0.094,0.076,0.207,0.156,0.335,0.236c0.131,0.079,0.278,0.149,0.44,0.218
			c0.162,0.063,0.342,0.118,0.538,0.161c0.196,0.041,0.4,0.063,0.612,0.063c0.342,0,0.648-0.056,0.916-0.167
			c0.269-0.107,0.49-0.264,0.668-0.464c0.178-0.202,0.313-0.44,0.406-0.72c0.094-0.276,0.14-0.588,0.14-0.93
			c0-0.361-0.047-0.686-0.144-0.96c-0.097-0.272-0.232-0.504-0.413-0.688C55.232,4.638,55.02,4.5,54.77,4.404
			C54.519,4.314,54.243,4.27,53.937,4.27z"/>
		<path fill="#ffffff" d="M79.697,9.172H79.66c-0.125,0.101-0.274,0.2-0.449,0.303c-0.174,0.104-0.373,0.2-0.596,0.291
			c-0.225,0.092-0.475,0.164-0.75,0.221c-0.274,0.056-0.569,0.086-0.887,0.086c-0.43,0-0.831-0.053-1.205-0.153
			s-0.694-0.245-0.963-0.433c-0.267-0.191-0.479-0.42-0.629-0.688c-0.152-0.27-0.23-0.567-0.23-0.899
			c0-0.363,0.088-0.689,0.267-0.979c0.178-0.288,0.425-0.535,0.743-0.734c0.316-0.201,0.696-0.354,1.139-0.461
			c0.443-0.104,0.933-0.152,1.468-0.152c0.393,0,0.753,0.019,1.083,0.056c0.331,0.039,0.621,0.082,0.87,0.131V5.487
			c0-0.158-0.038-0.313-0.107-0.457c-0.073-0.147-0.188-0.277-0.346-0.396c-0.159-0.109-0.365-0.206-0.621-0.271
			C78.19,4.296,77.878,4.26,77.512,4.26c-0.451,0-0.898,0.037-1.347,0.112c-0.448,0.073-0.935,0.188-1.457,0.337V3.414
			c0.455-0.15,0.937-0.264,1.448-0.346c0.509-0.08,1.046-0.121,1.606-0.127c0.661,0,1.238,0.063,1.732,0.186
			c0.497,0.121,0.909,0.286,1.242,0.498c0.334,0.213,0.583,0.464,0.749,0.754c0.167,0.29,0.247,0.605,0.247,0.945v2.558
			c0,0.446,0.005,0.832,0.02,1.155c0.011,0.32,0.024,0.607,0.037,0.857h-2L79.697,9.172z M79.52,6.999
			c-0.21-0.038-0.454-0.071-0.728-0.103c-0.273-0.029-0.55-0.047-0.832-0.047c-0.542,0-0.97,0.082-1.285,0.242
			c-0.314,0.159-0.472,0.404-0.472,0.735c0,0.153,0.035,0.29,0.108,0.405c0.071,0.111,0.167,0.209,0.288,0.281
			c0.122,0.074,0.264,0.133,0.426,0.168c0.161,0.035,0.332,0.059,0.512,0.059c0.225,0,0.437-0.021,0.636-0.067
			c0.199-0.047,0.382-0.102,0.55-0.167c0.17-0.064,0.32-0.144,0.454-0.228c0.133-0.087,0.247-0.169,0.341-0.247V6.997L79.52,6.999
			L79.52,6.999z"/>
		<path fill="#ffffff" d="M96.668,0h2.038v1.547h-2.038V0z M98.433,3.104h2.215v6.791h-2.215V3.104z M100.498,0h2.038v1.547h-2.038V0z"
			/>
		<path fill="#ffffff" d="M123.159,9.893V7.09h-3.652v2.803h-2.215V3.104h2.215v2.578h3.652V3.104h2.213v6.791L123.159,9.893
			L123.159,9.893z"/>
		<path fill="#ffffff" d="M148.479,9.747c-0.277,0.087-0.623,0.166-1.025,0.228c-0.406,0.063-0.832,0.098-1.283,0.098
			c-0.65,0-1.268-0.071-1.83-0.209c-0.564-0.144-1.061-0.354-1.484-0.641c-0.42-0.283-0.754-0.646-0.998-1.084
			c-0.244-0.436-0.365-0.943-0.365-1.527c0-0.653,0.142-1.216,0.42-1.682c0.279-0.468,0.645-0.848,1.088-1.14
			s0.945-0.507,1.505-0.646c0.558-0.14,1.108-0.207,1.649-0.207c0.404,0,0.791,0.025,1.166,0.08c0.375,0.056,0.713,0.127,1.016,0.22
			V4.59c-0.271-0.087-0.564-0.158-0.87-0.214c-0.31-0.054-0.641-0.082-0.995-0.082s-0.693,0.041-1.017,0.124
			c-0.326,0.081-0.612,0.21-0.858,0.391c-0.25,0.179-0.445,0.412-0.594,0.705c-0.146,0.293-0.219,0.646-0.219,1.056
			c0,0.3,0.06,0.579,0.168,0.843c0.111,0.264,0.273,0.488,0.49,0.677c0.213,0.188,0.484,0.34,0.818,0.452
			c0.333,0.112,0.729,0.172,1.184,0.172c0.404,0,0.771-0.027,1.104-0.091c0.331-0.062,0.641-0.135,0.936-0.224L148.479,9.747
			L148.479,9.747z"/>
		<path fill="#ffffff" d="M166.766,3.104v2.434c0.459-0.034,0.926-0.059,1.394-0.059c0.715,0,1.342,0.063,1.874,0.184
			c0.531,0.117,0.967,0.281,1.304,0.482c0.337,0.207,0.584,0.444,0.741,0.721c0.158,0.271,0.236,0.564,0.236,0.879
			c0,0.393-0.115,0.736-0.349,1.029c-0.235,0.291-0.562,0.531-0.979,0.728c-0.418,0.19-0.907,0.337-1.48,0.433
			c-0.568,0.096-1.189,0.141-1.863,0.141c-1.146,0-2.176-0.088-3.088-0.271V3.107h2.213V3.104H166.766z M167.766,8.71
			c0.691,0,1.241-0.078,1.648-0.229c0.404-0.154,0.611-0.396,0.611-0.715c0-0.139-0.039-0.261-0.116-0.375
			c-0.077-0.107-0.2-0.207-0.367-0.285c-0.168-0.085-0.388-0.148-0.655-0.193c-0.267-0.047-0.591-0.072-0.971-0.072
			s-0.764,0.021-1.148,0.061v1.771C167.072,8.695,167.406,8.71,167.766,8.71z"/>
		<path fill="#ffffff" d="M188.436,3.104h2.215v2.951h0.045l3.117-2.951h2.655l-3.7,3.351l3.896,3.44h-2.67l-3.309-2.963h-0.039v2.963
			h-2.213L188.436,3.104L188.436,3.104z"/>
		<path fill="#ffffff" d="M217.456,9.172h-0.036c-0.126,0.101-0.273,0.2-0.449,0.303c-0.173,0.104-0.371,0.2-0.597,0.291
			c-0.224,0.092-0.474,0.164-0.75,0.221c-0.271,0.056-0.567,0.086-0.886,0.086c-0.43,0-0.831-0.053-1.204-0.153
			c-0.375-0.101-0.694-0.245-0.964-0.433c-0.27-0.191-0.479-0.42-0.631-0.688c-0.15-0.27-0.229-0.567-0.229-0.899
			c0-0.363,0.088-0.689,0.267-0.979c0.18-0.288,0.426-0.535,0.744-0.734c0.314-0.201,0.694-0.354,1.139-0.461
			c0.44-0.104,0.932-0.152,1.467-0.152c0.392,0,0.753,0.019,1.084,0.056c0.33,0.039,0.619,0.082,0.871,0.131V5.487
			c0-0.158-0.038-0.313-0.107-0.457c-0.072-0.147-0.189-0.277-0.348-0.396c-0.159-0.109-0.365-0.206-0.619-0.271
			c-0.258-0.066-0.564-0.104-0.938-0.104c-0.446,0-0.897,0.037-1.346,0.112c-0.445,0.073-0.938,0.188-1.458,0.337V3.414
			c0.456-0.15,0.938-0.264,1.447-0.346c0.513-0.08,1.045-0.121,1.606-0.127c0.66,0,1.238,0.063,1.733,0.186
			c0.499,0.121,0.911,0.286,1.244,0.498c0.333,0.213,0.582,0.464,0.747,0.754c0.167,0.29,0.247,0.605,0.247,0.945v2.558
			c0,0.446,0.005,0.832,0.021,1.155c0.012,0.32,0.024,0.607,0.036,0.857h-2L217.456,9.172z M217.279,6.999
			c-0.213-0.038-0.455-0.071-0.732-0.103c-0.271-0.029-0.55-0.047-0.829-0.047c-0.54,0-0.971,0.082-1.282,0.242
			c-0.313,0.159-0.474,0.404-0.474,0.735c0,0.153,0.036,0.29,0.106,0.405c0.072,0.111,0.168,0.209,0.289,0.281
			c0.125,0.074,0.264,0.133,0.426,0.168c0.16,0.035,0.334,0.059,0.512,0.059c0.225,0,0.438-0.021,0.637-0.067
			c0.197-0.047,0.381-0.102,0.549-0.167c0.168-0.064,0.32-0.144,0.455-0.228c0.135-0.087,0.244-0.169,0.34-0.247L217.279,6.999
			L217.279,6.999z"/>
	</g>
</g>
</svg>
